<?xml version="1.0" encoding="utf-8"?>
<!-- Generator: Adobe Illustrator 25.2.3, SVG Export Plug-In . SVG Version: 6.00 Build 0)  -->
<svg version="1.1" id="Calque_1" xmlns="http://www.w3.org/2000/svg" xmlns:xlink="http://www.w3.org/1999/xlink" x="0px" y="0px"
     viewBox="0 0 25.9 18.1" style="enable-background:new 0 0 25.9 18.1;" xml:space="preserve">
<style type="text/css">
	.st0{fill:#FFFFFF;}
	.st1{fill:#BA2D37;}
	.st2{fill:#24305C;}
</style>
    <g id="Drapeau_anglais" transform="translate(-311 60.927)">
	<path id="Tracé_14" class="st0" d="M334-55C334-55,333.9-55,334-55L334-55l2.4,0v0H334L334-55z"/>
        <path id="Tracé_15" class="st0" d="M313.9-55L313.9-55C314-55,313.9-55,313.9-55C313.9-55,313.9-55,313.9-55
		C313.9-55,313.9-55,313.9-55c-0.3,0-0.5,0-0.8,0h-1.5v0H313.9z"/>
        <path id="Tracé_16" class="st0" d="M327.1-48.1L327.1-48.1C327.1-48,327-48,327.1-48.1l0,5.3h0V-48.1z"/>
        <path id="Tracé_17" class="st0" d="M320.4-56c0.1,0.1,0.3,0.2,0.4,0.3v0L320.4-56c-1.6-1.1-3.2-2.1-4.8-3.1
		c-0.2-0.1-0.3-0.2-0.5-0.3c0,0,0,0,0,0v0c0.2,0.1,0.3,0.2,0.5,0.3C317.2-58,318.8-57,320.4-56z"/>
        <path id="Tracé_18" class="st0" d="M313.9-48.8C313.9-48.8,313.9-48.8,313.9-48.8c-0.6,0.4-1.2,0.8-1.9,1.2l0,0
		C312.7-48,313.3-48.4,313.9-48.8C313.9-48.7,313.9-48.8,313.9-48.8z"/>
        <path id="Tracé_19" class="st0" d="M327.1-55.7C327.1-55.7,327.1-55.7,327.1-55.7c1.2-0.8,2.3-1.5,3.5-2.2c0.8-0.5,1.5-1,2.3-1.5
		l0,0c-0.8,0.5-1.5,1-2.3,1.5C329.4-57.2,328.3-56.5,327.1-55.7C327.1-55.7,327.1-55.7,327.1-55.7C327.1-55.7,327.1-55.8,327.1-55.7
		l0-5.2h0V-55.7z"/>
        <path id="Tracé_20" class="st0" d="M334-48.8L334-48.8C334-48.7,334-48.7,334-48.8c0.7,0.4,1.2,0.8,1.8,1.2v0
		C335.2-48,334.6-48.4,334-48.8C334-48.7,334-48.8,334-48.8z"/>
        <path id="Tracé_21" class="st1" d="M336.6-54c-3.5,0-6.9,0-10.4,0c-0.1,0-0.1,0-0.1-0.1v-6.8h-4.4v6.8c0,0.1,0,0.1-0.1,0.1
		c-3.5,0-6.9,0-10.4,0c-0.2,0.7-0.3,1.5-0.3,2.2v0c0,0.7,0.1,1.4,0.3,2.1h10.4c0.1,0,0.1,0.1,0.1,0.1v6.8h4.4v-6.8
		c0-0.1,0-0.1,0.1-0.1h10.4c0.2-0.7,0.3-1.4,0.3-2v-0.1C336.9-52.6,336.8-53.3,336.6-54z"/>
        <path id="Tracé_22" class="st0" d="M327.1-48L327.1-48L327.1-48l0-0.1c0,0,0.1,0,0.1,0.1c0.2,0.1,0.5,0.3,0.7,0.5
		c1.6,1,3.2,2.1,4.8,3.1l0.2,0.1c0.6-0.4,1.2-0.9,1.7-1.5c-1.2-0.8-2.5-1.6-3.7-2.4c-0.3-0.2-0.6-0.4-0.8-0.5c0,0,0,0,0.1,0h2.7
		c0,0,0.1,0,0.1,0c0.9,0.6,1.8,1.1,2.6,1.7c0.1-0.2,0.2-0.4,0.3-0.5c-0.6-0.4-1.2-0.8-1.8-1.2c0,0-0.1,0-0.1-0.1h0v0h2.4
		c0.1-0.3,0.2-0.6,0.3-0.9h-10.4c-0.1,0-0.1,0-0.1,0.1v6.8h0.9C327.1-44.5,327.1-46.3,327.1-48z"/>
        <path id="Tracé_23" class="st0" d="M320.8-55.8L320.8-55.8L320.8-55.8l0,0.1c-0.2-0.1-0.3-0.2-0.4-0.3c-1.6-1.1-3.2-2.1-4.8-3.1
		c-0.2-0.1-0.3-0.2-0.5-0.3c-0.6,0.4-1.2,0.9-1.7,1.5c0.2,0.1,0.4,0.3,0.6,0.4c1.3,0.8,2.6,1.7,3.9,2.5c0,0,0,0,0.1,0.1h-2.8
		c0,0-0.1,0-0.1,0c-0.9-0.6-1.7-1.1-2.6-1.7c-0.1,0.2-0.2,0.3-0.3,0.5c0.4,0.3,0.9,0.6,1.3,0.8c0.2,0.1,0.4,0.2,0.5,0.4h0
		c0,0,0,0,0,0c0,0,0,0,0,0h-2.4c-0.1,0.3-0.2,0.6-0.3,0.9h10.4c0.1,0,0.1,0,0.1-0.1v-6.8h-0.9C320.8-59.2,320.8-57.5,320.8-55.8z"/>
        <path id="Tracé_24" class="st0" d="M334.1-55H334C334-55,334-55,334.1-55C334-55,334-55,334.1-55l-0.1,0C334-55,334-55,334.1-55
		c0.3-0.3,0.6-0.5,1-0.7c0.3-0.2,0.5-0.3,0.8-0.5c-0.3-0.6-0.8-1.2-1.3-1.8c-0.4,0.3-0.8,0.5-1.2,0.8c-1.1,0.7-2.2,1.4-3.3,2.2
		c0,0-0.1,0-0.1,0h-2.8c0.1-0.1,0.3-0.2,0.4-0.2c1-0.7,2-1.3,3-2c0.9-0.6,1.9-1.2,2.8-1.8c-0.2-0.1-0.4-0.3-0.5-0.4
		c-0.8,0.5-1.5,1-2.3,1.5c-1.1,0.7-2.3,1.5-3.4,2.2c0,0,0,0-0.1,0v-5.2h-0.9v6.8c0,0.1,0,0.1,0.1,0.1h10.4c-0.1-0.3-0.2-0.6-0.3-0.9
		C335.6-55,334.8-55,334.1-55z"/>
        <path id="Tracé_25" class="st0" d="M313.8-48.8L313.8-48.8C313.9-48.8,313.9-48.8,313.8-48.8C313.9-48.8,313.9-48.8,313.8-48.8
		c-0.6,0.4-1.2,0.8-1.8,1.2c0.3,0.6,0.8,1.2,1.3,1.8c0.4-0.3,0.8-0.5,1.2-0.8c1.1-0.7,2.2-1.4,3.3-2.2c0,0,0.1,0,0.1,0h2.7
		c0,0,0,0,0.1,0c-0.1,0.1-0.3,0.2-0.4,0.3c-1.2,0.8-2.5,1.6-3.7,2.4l-2.1,1.4c0.2,0.1,0.4,0.3,0.5,0.4c0.4-0.3,0.8-0.5,1.3-0.8
		c1.5-0.9,2.9-1.9,4.4-2.9c0,0,0.1-0.1,0.1-0.1v5.3h0.9v-6.8c0-0.1,0-0.1-0.1-0.1h-10.4c0.1,0.3,0.2,0.6,0.3,0.9
		C312.3-48.8,313.1-48.8,313.8-48.8z"/>
        <path id="Tracé_26" class="st1" d="M327.5-55.2c-0.1,0.1-0.2,0.2-0.4,0.2h2.8c0,0,0.1,0,0.1,0c1.1-0.7,2.2-1.4,3.3-2.2
		c0.4-0.3,0.8-0.5,1.2-0.8c-0.4-0.4-0.8-0.8-1.2-1.1c-0.9,0.6-1.9,1.2-2.8,1.8C329.5-56.5,328.5-55.9,327.5-55.2z"/>
        <path id="Tracé_27" class="st1" d="M320.4-48.5c0.1-0.1,0.3-0.2,0.4-0.3c0,0,0,0-0.1,0H318c0,0-0.1,0-0.1,0
		c-1.1,0.7-2.2,1.4-3.3,2.2c-0.4,0.3-0.8,0.5-1.2,0.8c0.4,0.4,0.7,0.8,1.2,1.1l2.1-1.4C317.9-46.9,319.1-47.7,320.4-48.5z"/>
        <path id="Tracé_28" class="st1" d="M315.2-55h2.8c0,0-0.1,0-0.1-0.1c-1.3-0.8-2.6-1.7-3.9-2.5c-0.2-0.1-0.4-0.3-0.6-0.4
		c-0.3,0.4-0.7,0.8-0.9,1.2c0.9,0.6,1.7,1.1,2.6,1.7C315.1-55,315.1-55,315.2-55z"/>
        <path id="Tracé_29" class="st1" d="M332.7-48.8h-2.7c0,0,0,0-0.1,0c0.3,0.2,0.6,0.4,0.8,0.5c1.2,0.8,2.5,1.6,3.7,2.4
		c0.3-0.4,0.7-0.8,0.9-1.2c-0.9-0.6-1.8-1.1-2.6-1.7C332.8-48.8,332.8-48.8,332.7-48.8z"/>
        <path id="Tracé_30" class="st2" d="M334-55C334-55,334-55,334-55l2.3,0c-0.1-0.4-0.3-0.8-0.5-1.2c-0.3,0.2-0.5,0.4-0.8,0.5
		C334.7-55.4,334.3-55.2,334-55z"/>
        <path id="Tracé_31" class="st2" d="M334-55C334-55,334-55,334-55L334-55C334-55,334-55,334-55c0.3-0.2,0.7-0.4,1-0.6
		c0.3-0.2,0.5-0.4,0.8-0.5l0,0c-0.3,0.2-0.5,0.3-0.8,0.5C334.7-55.5,334.3-55.2,334-55z"/>
        <path id="Tracé_32" class="st2" d="M320.4-56c0.1,0.1,0.3,0.2,0.4,0.3v-5.2h-0.8c-1.8,0-3.5,0.5-5,1.5c0.2,0.1,0.3,0.2,0.5,0.3
		C317.2-58.1,318.8-57,320.4-56z"/>
        <path id="Tracé_33" class="st2" d="M320.8-55.7L320.8-55.7C320.9-55.7,320.9-55.7,320.8-55.7l0-5.2h0V-55.7z"/>
        <path id="Tracé_34" class="st2" d="M327.1-55.7C327.1-55.7,327.1-55.7,327.1-55.7c1.2-0.8,2.3-1.5,3.5-2.2c0.8-0.5,1.5-1,2.3-1.5
		c-1.5-1-3.2-1.5-5-1.5h-0.8V-55.7z"/>
        <path id="Tracé_35" class="st2" d="M327.9-47.6c-0.2-0.1-0.5-0.3-0.7-0.5c0,0-0.1,0-0.1-0.1v5.3h0.8c1.8,0,3.5-0.5,5-1.5
		c-0.1,0-0.1-0.1-0.2-0.1C331.1-45.5,329.5-46.5,327.9-47.6z"/>
        <path id="Tracé_36" class="st2" d="M313.9-55L313.9-55c-0.1-0.1-0.3-0.2-0.5-0.3c-0.4-0.3-0.9-0.6-1.3-0.8
		c-0.2,0.4-0.4,0.8-0.5,1.2H313.9z"/>
        <path id="Tracé_37" class="st2" d="M313.9-48.8L313.9-48.8l-2.4,0c0.1,0.4,0.3,0.8,0.5,1.2C312.7-48,313.3-48.4,313.9-48.8
		C313.9-48.8,313.9-48.8,313.9-48.8z"/>
        <path id="Tracé_38" class="st2" d="M320.8-48.1c-0.1,0-0.1,0.1-0.1,0.1c-1.5,0.9-2.9,1.9-4.4,2.9c-0.4,0.3-0.8,0.5-1.3,0.8
		c1.5,1,3.2,1.5,5,1.5h0.8V-48.1z"/>
        <path id="Tracé_39" class="st2" d="M327.9-47.6c-0.2-0.1-0.5-0.3-0.7-0.5c0,0-0.1,0-0.1-0.1v0c0,0,0.1,0,0.1,0.1
		C327.4-47.9,327.6-47.7,327.9-47.6c1.6,1.1,3.2,2.1,4.8,3.1c0.1,0,0.1,0.1,0.2,0.1c0,0,0,0,0,0l0,0l-0.2-0.1
		C331.1-45.5,329.5-46.5,327.9-47.6z"/>
        <path id="Tracé_40" class="st2" d="M313.9-55L313.9-55c-0.2-0.1-0.4-0.2-0.5-0.4c-0.4-0.3-0.9-0.6-1.3-0.8v0
		c0.4,0.3,0.9,0.6,1.3,0.8C313.6-55.2,313.7-55.1,313.9-55z"/>
        <path id="Tracé_41" class="st2" d="M320.8-48.1c-0.1,0-0.1,0.1-0.1,0.1c-1.5,0.9-2.9,1.9-4.4,2.9c-0.4,0.3-0.8,0.5-1.3,0.8l0,0
		c0.4-0.3,0.8-0.5,1.3-0.8c1.5-0.9,2.9-1.9,4.4-2.9C320.7-48,320.8-48,320.8-48.1c0,0,0,0.1,0,0.1v5.2h0V-48.1z"/>
        <path id="Tracé_42" class="st2" d="M313.9-48.8L313.9-48.8C313.9-48.8,313.9-48.8,313.9-48.8l-2.4,0v0H313.9z"/>
        <path id="Tracé_43" class="st2" d="M334-48.8C334-48.7,334-48.7,334-48.8c0.7,0.4,1.3,0.8,1.9,1.2c0.2-0.4,0.4-0.8,0.5-1.2
		L334-48.8C334-48.8,334-48.8,334-48.8z"/>
        <path id="Tracé_44" class="st2" d="M334-48.8L334-48.8C334-48.8,334-48.8,334-48.8l2.4,0v0H334z"/>
</g>
</svg>
