<?xml version="1.0" encoding="utf-8"?>
<!-- Generator: Adobe Illustrator 25.2.3, SVG Export Plug-In . SVG Version: 6.00 Build 0)  -->
<svg version="1.1" id="Calque_1" xmlns="http://www.w3.org/2000/svg" xmlns:xlink="http://www.w3.org/1999/xlink" x="0px" y="0px"
     viewBox="0 0 25.9 18.1" style="enable-background:new 0 0 25.9 18.1;" xml:space="preserve">
<style type="text/css">
	.st0{fill:#F4F3F4;}
	.st1{fill:#D62235;}
	.st2{fill:#3C9347;}
</style>
    <g id="Drapeau_italien" transform="translate(-218 60.927)">
	<path id="Tracé_6744" class="st0" d="M227.1-60.9c-0.1,0-0.3,0-0.4,0v18.1c0.1,0,0.3,0,0.4,0h7.8c0.2,0,0.3,0,0.5,0v-18.1
		c-0.2,0-0.3,0-0.5,0H227.1z"/>
        <path id="Tracé_6745" class="st1" d="M235.3-60.9v18.1c4.8-0.3,8.6-4.2,8.6-9v-0.1C243.9-56.7,240.1-60.7,235.3-60.9z"/>
        <path id="Tracé_6746" class="st2" d="M226.7-42.8v-18.1c-4.8,0.2-8.7,4.2-8.7,9v0C218-47,221.8-43,226.7-42.8z"/>
</g>
</svg>
