<?xml version="1.0" encoding="utf-8"?>
<!-- Generator: Adobe Illustrator 25.2.3, SVG Export Plug-In . SVG Version: 6.00 Build 0)  -->
<svg version="1.1" id="Calque_1" xmlns="http://www.w3.org/2000/svg" xmlns:xlink="http://www.w3.org/1999/xlink" x="0px" y="0px"
     viewBox="0 0 6.8 11.4" style="enable-background:new 0 0 6.8 11.4;" xml:space="preserve">
<path id="fleche" d="M6.6,5.3c0-0.1-0.1-0.1-0.1-0.2L1.7,0.3c-0.4-0.4-0.9-0.4-1.3,0l0,0C0,0.6,0,1.2,0.4,1.6c0,0,0,0,0,0l4.3,4.3
	l-4.3,4c-0.4,0.3-0.4,0.9,0,1.3c0,0,0,0,0,0l0,0c0.3,0.4,0.9,0.4,1.3,0l5-4.6C6.9,6.2,6.9,5.6,6.6,5.3z"/>
</svg>
